<svg width="122" height="21" viewBox="0 0 122 21" fill="none" xmlns="http://www.w3.org/2000/svg">
<g clip-path="url(#clip0_265_323)">
<path fill-rule="evenodd" clip-rule="evenodd" d="M6.35201 0.60632C3.33909 0.60632 0.881163 3.06423 0.881163 6.07717V13.9833C0.881163 16.9962 3.33909 19.4542 6.35201 19.4542H14.2581C17.2711 19.4542 19.7289 16.9962 19.7289 13.9833V6.07717C19.7289 3.06423 17.2711 0.60632 14.2581 0.60632H6.35201ZM6.35212 2.05579H14.2582C16.4868 2.05579 18.2793 3.84543 18.2793 6.07682V13.983C18.2793 16.2115 16.4897 18.0039 14.2582 18.0039H6.35212C4.12357 18.0039 2.33111 16.2143 2.33111 13.983V6.07682C2.33111 3.84827 4.12074 2.05579 6.35212 2.05579ZM15.7419 3.50653C15.1415 3.50653 14.6545 3.99358 14.6545 4.5939C14.6545 5.19423 15.1415 5.68129 15.7419 5.68129C16.3422 5.68129 16.8292 5.19423 16.8292 4.5939C16.8292 3.99358 16.3422 3.50653 15.7419 3.50653ZM10.3047 4.95604C7.50982 4.95604 5.2303 7.23557 5.2303 10.0305C5.2303 12.8254 7.50982 15.1048 10.3047 15.1048C13.0997 15.1048 15.3791 12.8254 15.3791 10.0305C15.3791 7.23557 13.0997 4.95604 10.3047 4.95604ZM10.305 6.40556C12.3156 6.40556 13.9296 8.01963 13.9296 10.0301C13.9296 12.0406 12.3156 13.6547 10.305 13.6547C8.29447 13.6547 6.6804 12.0406 6.6804 10.0301C6.6804 8.01963 8.29447 6.40556 10.305 6.40556Z" fill="white"/>
</g>
<g clip-path="url(#clip1_265_323)">
<path fill-rule="evenodd" clip-rule="evenodd" d="M71.3077 2.42534C70.5037 2.8815 68.8904 3.50318 67.9421 3.6825C67.9144 3.68939 67.8917 3.69825 67.8649 3.70515C67.0268 2.915 65.8786 2.42534 64.6077 2.42534C62.0462 2.42534 59.9692 4.41058 59.9692 6.85887C59.9692 6.98793 59.9579 7.22537 59.9692 7.35149C56.5131 7.35149 53.8826 5.62143 51.9963 3.41057C51.7911 3.90318 51.7015 4.68152 51.7015 5.41256C51.7015 6.79286 52.8302 8.14854 54.5876 8.98894C54.2639 9.06873 53.9073 9.12589 53.5362 9.12589C52.9374 9.12589 52.3034 8.97514 51.7231 8.518C51.7231 8.53475 51.7231 8.55051 51.7231 8.56824C51.7231 10.4973 53.865 11.8106 55.7699 12.1761C55.3834 12.3939 54.6041 12.4156 54.2237 12.4156C53.9558 12.4156 53.0074 12.2983 52.7539 12.253C53.2837 13.8343 55.1947 14.723 57.0161 14.7545C55.5916 15.8225 54.6031 16.2186 51.686 16.2186H50.6923C52.5354 17.3477 54.8824 18.19 57.2346 18.19C64.8931 18.19 69.2461 12.6106 69.2461 7.35149C69.2461 7.26676 69.2441 7.08941 69.2409 6.91109C69.2409 6.89336 69.2461 6.87661 69.2461 6.85887C69.2461 6.83227 69.2379 6.80665 69.2379 6.78006C69.2348 6.64606 69.2317 6.52094 69.2285 6.45591C70.0428 5.89433 70.749 5.19383 71.3077 4.3958C70.5603 4.71305 69.7584 4.92586 68.9163 5.02241C69.7759 4.52979 70.9975 3.3554 71.3077 2.42534Z" fill="white"/>
</g>
<g clip-path="url(#clip2_265_323)">
<path fill-rule="evenodd" clip-rule="evenodd" d="M104.493 0C103.156 0 102.072 1.10725 102.072 2.47443C102.072 3.84159 103.156 4.97447 104.491 4.97447C105.827 4.97447 106.913 3.84159 106.913 2.47443C106.913 1.10819 105.83 0 104.493 0ZM116.306 6.55942C114.273 6.55942 113.109 7.64682 112.551 8.72819H112.492V6.85041H108.486V20.6153H112.661V13.8015C112.661 12.0061 112.793 10.2711 114.966 10.2711C117.107 10.2711 117.138 12.3182 117.138 13.9149V20.6153H121.313V13.0548C121.313 9.35527 120.535 6.55942 116.306 6.55942ZM102.405 6.85041V20.6153H106.583V6.85041H102.405Z" fill="white"/>
</g>
<defs>
<clipPath id="clip0_265_323">
<rect width="20.5625" height="20.5625" fill="white" transform="scale(1.00257)"/>
</clipPath>
<clipPath id="clip1_265_323">
<rect width="20.5625" height="20.5625" fill="white" transform="translate(50.6923) scale(1.00257)"/>
</clipPath>
<clipPath id="clip2_265_323">
<rect width="20.5625" height="20.5625" fill="white" transform="translate(101.385) scale(1.00257)"/>
</clipPath>
</defs>
</svg>
